HIERARCHY
ROOT Hips
{
	OFFSET 0.000000 0.000000 0.000000
	CHANNELS 6 Xposition Yposition Zposition Zrotation Yrotation Xrotation 
	JOINT LHipJoint
	{
		OFFSET 0.000000 0.000000 0.000000
		CHANNELS 3 Zrotation Yrotation Xrotation
		JOINT LeftUpLeg
		{
			OFFSET 1.363060 -1.794630 0.839290
			CHANNELS 3 Zrotation Yrotation Xrotation
			JOINT LeftLeg
			{
				OFFSET 2.448110 -6.726130 0.000000
				CHANNELS 3 Zrotation Yrotation Xrotation
				JOINT LeftFoot
				{
					OFFSET 2.562200 -7.039590 0.000000
					CHANNELS 3 Zrotation Yrotation Xrotation
					JOINT LeftToeBase
					{
						OFFSET 0.157640 -0.433110 2.322550
						CHANNELS 3 Zrotation Yrotation Xrotation
						End Site
						{
							OFFSET 0.000000 0.000000 0.000000
						}
					}
				}
			}
		}
	}
	JOINT RHipJoint
	{
		OFFSET 0.000000 0.000000 0.000000
		CHANNELS 3 Zrotation Yrotation Xrotation
		JOINT RightUpLeg
		{
			OFFSET -1.305520 -1.794630 0.839290
			CHANNELS 3 Zrotation Yrotation Xrotation
			JOINT RightLeg
			{
				OFFSET -2.542530 -6.985550 0.000000
				CHANNELS 3 Zrotation Yrotation Xrotation
				JOINT RightFoot
				{
					OFFSET -2.568260 -7.056230 0.000000
					CHANNELS 3 Zrotation Yrotation Xrotation
					JOINT RightToeBase
					{
						OFFSET -0.164730 -0.452590 2.363150
						CHANNELS 3 Zrotation Yrotation Xrotation
						End Site
						{
							OFFSET 0.000000 0.000000 0.000000
						}
					}
				}
			}
		}
	}
	JOINT LowerBack
	{
		OFFSET 0.000000 0.000000 0.000000
		CHANNELS 3 Zrotation Yrotation Xrotation
		JOINT Spine
		{
			OFFSET 0.028270 2.035590 -0.193380
			CHANNELS 3 Zrotation Yrotation Xrotation
			JOINT Spine1
			{
				OFFSET 0.056720 2.048850 -0.042750
				CHANNELS 3 Zrotation Yrotation Xrotation
				JOINT Neck
				{
					OFFSET 0.000000 0.000000 0.000000
					CHANNELS 3 Zrotation Yrotation Xrotation
					JOINT Neck1
					{
						OFFSET -0.054170 1.746240 0.172020
						CHANNELS 3 Zrotation Yrotation Xrotation
						JOINT Head
						{
							OFFSET 0.104070 1.761360 -0.123970
							CHANNELS 3 Zrotation Yrotation Xrotation
							End Site
							{
								OFFSET 0.000000 0.000000 0.000000
							}
						}
					}
				}
				JOINT LeftShoulder
				{
					OFFSET 0.000000 0.000000 0.000000
					CHANNELS 3 Zrotation Yrotation Xrotation
					JOINT LeftArm
					{
						OFFSET 3.362410 1.200890 -0.311210
						CHANNELS 3 Zrotation Yrotation Xrotation
						JOINT LeftForeArm
						{
							OFFSET 4.983000 -0.000000 -0.000000
							CHANNELS 3 Zrotation Yrotation Xrotation
							JOINT LeftHand
							{
								OFFSET 3.483560 -0.000000 -0.000000
								CHANNELS 3 Zrotation Yrotation Xrotation
								JOINT LeftFingerBase
								{
									OFFSET 0.000000 0.000000 0.000000
									CHANNELS 3 Zrotation Yrotation Xrotation
									JOINT LeftHandIndex1
									{
										OFFSET 0.715260 -0.000000 -0.000000
										CHANNELS 3 Zrotation Yrotation Xrotation
										End Site
										{
											OFFSET 0.000000 0.000000 0.000000
										}
									}
								}
								JOINT LThumb
								{
									OFFSET 0.000000 0.000000 0.000000
									CHANNELS 3 Zrotation Yrotation Xrotation
									End Site
									{
										OFFSET 0.000000 0.000000 0.000000
									}
								}
							}
						}
					}
				}
				JOINT RightShoulder
				{
					OFFSET 0.000000 0.000000 0.000000
					CHANNELS 3 Zrotation Yrotation Xrotation
					JOINT RightArm
					{
						OFFSET -3.136600 1.374050 -0.404650
						CHANNELS 3 Zrotation Yrotation Xrotation
						JOINT RightForeArm
						{
							OFFSET -5.241900 -0.000000 -0.000000
							CHANNELS 3 Zrotation Yrotation Xrotation
							JOINT RightHand
							{
								OFFSET -3.444170 -0.000000 -0.000000
								CHANNELS 3 Zrotation Yrotation Xrotation
								JOINT RightFingerBase
								{
									OFFSET 0.000000 0.000000 0.000000
									CHANNELS 3 Zrotation Yrotation Xrotation
									JOINT RightHandIndex1
									{
										OFFSET -0.622530 -0.000000 -0.000000
										CHANNELS 3 Zrotation Yrotation Xrotation
										End Site
										{
											OFFSET 0.000000 0.000000 0.000000
										}
									}
								}
								JOINT RThumb
								{
									OFFSET 0.000000 0.000000 0.000000
									CHANNELS 3 Zrotation Yrotation Xrotation
									End Site
									{
										OFFSET 0.000000 0.000000 0.000000
									}
								}
							}
						}
					}
				}
			}
		}
	}
}
MOTION
Frames: 4
Frame Time: 0.033333
-0.181663 18.250792 -0.181663 -3.836409 3.520265 9.823311 -11.572624 6.284665 2.077470 -2.545698 -2.962920 -11.394126 3.780632 11.611784 26.551554 -0.223531 -2.926578 -20.532623 0.000000 0.000000 0.000000 7.833529 -6.315387 -1.965608 12.360770 7.106442 -9.533653 5.571783 -6.123793 22.848456 -1.044349 14.809334 -35.264474 0.000000 0.000000 0.000000 0.884706 0.531129 8.647115 5.383570 1.052578 0.211942 -1.881414 2.116461 -10.277082 3.792767 -0.388058 -4.347050 0.275948 -0.095185 2.621584 0.000000 0.000000 0.000000 1.908638 10.064001 8.304991 -68.428732 -6.612097 11.309685 -48.095556 -36.606948 0.235557 -2.116472 -9.880812 0.116469 -2.104493 -9.887990 0.000000 0.000000 0.000000 0.000000 0.000000 0.000000 0.000000 -7.145274 -12.234933 5.763140 71.523924 0.549649 19.291957 179.221914 84.150867 -179.757503 -3.189752 10.815740 0.118064 -3.227497 10.808257 0.000000 0.000000 0.000000 0.000000 0.000000 0.000000 0.000000 
-0.156996 18.237711 -0.221229 -4.185778 3.285992 9.211604 -11.103756 6.733012 2.435684 -2.785097 -2.885542 -11.071316 3.675258 11.470978 26.099088 -0.158477 -3.195368 -20.908201 0.000000 0.000000 0.000000 7.101574 -6.903541 -3.391129 14.658761 6.487629 -8.369920 4.024318 -6.710462 24.012709 -1.019525 14.116410 -35.151626 0.000000 0.000000 0.000000 0.790716 0.455655 9.073389 5.718691 1.111483 0.230223 -1.564949 2.132668 -9.474020 4.335111 -0.579051 -5.484374 -0.353208 -0.123825 2.211089 0.000000 0.000000 0.000000 2.508075 9.255911 8.664306 -68.867675 -6.093810 13.479731 -47.032240 -43.752639 0.327763 -2.086511 -10.976469 0.162229 -2.075828 -10.984648 0.000000 0.000000 0.000000 0.000000 0.000000 0.000000 0.000000 -7.939769 -11.298484 5.678349 72.467644 1.564047 18.047332 177.106929 82.447034 -179.783849 -3.485298 10.469945 0.104899 -3.523872 10.460955 0.000000 0.000000 0.000000 0.000000 0.000000 0.000000 0.000000 
-0.132876 18.225924 -0.263037 -4.518333 3.026796 8.583130 -10.644829 7.192484 2.815964 -3.021587 -2.802175 -10.749335 3.561484 11.323351 25.624795 -0.096070 -3.452241 -21.255660 0.000000 0.000000 0.000000 6.418366 -7.512399 -4.854331 16.888779 5.748990 -7.145089 2.392880 -7.313388 25.125741 -0.941280 13.238157 -34.842191 0.000000 0.000000 0.000000 0.662644 0.373349 9.508378 6.049623 1.159720 0.256434 -1.249058 2.129780 -8.689512 4.969927 -0.782133 -6.592699 -1.018356 -0.160990 1.791601 0.000000 0.000000 0.000000 3.037316 8.477936 8.987869 -69.402123 -5.527236 15.901844 -44.582417 -51.199868 0.428086 -1.914180 -12.058031 0.211986 -1.905308 -12.067277 0.000000 0.000000 0.000000 0.000000 0.000000 0.000000 0.000000 -8.759806 -10.334076 5.647521 73.403797 2.685764 16.709094 175.098797 80.840382 -179.811023 -3.748217 10.086984 0.091345 -3.787096 10.076680 0.000000 0.000000 0.000000 0.000000 0.000000 0.000000 0.000000 
-0.109030 18.215868 -0.306393 -4.786489 2.757685 8.016287 -10.242961 7.611878 3.163728 -3.259689 -2.708310 -10.439294 3.434842 11.175358 25.125997 -0.037329 -3.687562 -21.567193 0.000000 0.000000 0.000000 5.761613 -8.125232 -6.404066 19.011692 4.892737 -5.904065 0.701186 -7.959767 26.195335 -0.793868 12.143620 -34.311166 0.000000 0.000000 0.000000 0.625636 0.327813 10.143466 6.076605 1.231542 -0.057966 -0.989401 2.124116 -7.800481 5.340604 -0.887812 -7.162216 -1.287269 -0.176821 1.538014 0.000000 0.000000 0.000000 3.619006 7.741317 9.228757 -69.906874 -5.048910 18.322602 -40.507101 -58.530421 0.514396 -1.520273 -13.041980 0.254591 -1.511273 -13.052128 0.000000 0.000000 0.000000 0.000000 0.000000 0.000000 0.000000 -9.424954 -9.574151 5.538327 74.327740 3.845045 15.414898 173.261151 79.327863 -179.836277 -3.956045 9.680633 0.078782 -3.994525 9.669389 0.000000 0.000000 0.000000 0.000000 0.000000 0.000000 0.000000 
